<svg id="Layer_2" data-name="Layer 2" xmlns="http://www.w3.org/2000/svg" viewBox="0 0 128.24 214.34"><defs><style>.cls-1{fill:#ea611d;}.cls-2{fill:#c19807;}</style></defs><path class="cls-1" d="M383.2,324.17c-8.37,19.95-26.95,9.86-26.95,9.86-11.35-7.91-7-22.13-7-22.13,8.37-19.26,21.9-5,21.9-5,1.49-15-15.94-16.28-15.94-16.28-4.93-16.05-21.67-15.25-21.67-15.25-1.72-1.83-5-1.49-5-1.49-2.18-.69-9.29-7.38-9.29-7.38a22.18,22.18,0,0,0,4.13,8.64c-7.45.69-16.74-10.78-16.74-10.78-.92,7,7.91,15.83,7.91,15.83-11.81.68-26.9-17.09-26.9-17.09-1.34,15.6,18.65,27.86,18.65,27.86-3.67,2.53-9.17,12.73-9.17,12.73a137.54,137.54,0,0,1-11.05,15.63c-15.9,16.2-27.51,7-27.51,7-5-7.77-3.29-19.72,2-33.17C261,301.59,263,309.31,264,311c3.49,5.82,11.13,6.17,13.87,5.54,15-3.41,6.53-17.09,4.8-18.47-1.26-1-8.45-5.51-10.69,2.8a10.45,10.45,0,0,0,.24,5.72c-.51-1.6-.65-7.87,6-7.37,2.47.19,9,7.21,2.32,12.91-1.4,1.19-6.31,1.39-8.79,1-3-.5-6.82-3.18-8-13.28-.38-3.16-1.49-7.82-1.4-11.11,8.6-19.72,23.83-41.93,36.44-58.65-.36,7.58.87,14.69,1.62,16.29,2.58,5.53,9.43,6.58,12,6.28,13.87-1.59,7.56-14.6,6.13-16-1-1-7.08-5.73-9.91,1.46a9.18,9.18,0,0,0-.34,5.12c-.31-1.47.18-7.08,6.16-6,2.21.4,7.42,7.29.83,11.74-1.37.92-5.82.62-8,0-2.69-.73-5.84-3.49-6-12.61,0-2.69-.45-6.51-.16-9.39,10.45-13.67,18.57-23,18.57-23,7.93,8.22,14.89,16,21,23.48.18,2.85-.15,6.44-.18,9-.09,9.23-2.86,12-5.23,12.76-1.93.61-5.84.91-7,0-5.79-4.49-1.21-11.46.73-11.87,5.08-1.07,5.65,4.18,5.45,5.88a10.62,10.62,0,0,0-.33-5c-2.49-7.28-7.8-2.51-8.72-1.48-1.25,1.41-6.8,14.57,5.4,16.18,2.23.3,8.26-.76,10.52-6.35.65-1.59,1.6-9.22,1.32-16.76,27.17,33.64,36.74,58.83,39.85,74.68-.53,3.18-2.13,7.93-2.69,10.47-2.07,9.23-5.89,11.34-8.81,11.51-2.38.13-7-.53-8.24-1.77-5.82-5.93,1-11.79,3.36-11.73,6.39.19,5.69,6,5.06,7.41a9.49,9.49,0,0,0,.75-5.27c-1.38-7.91-8.6-4.44-9.88-3.63-1.76,1.11-11,12.94,2.88,17.57,2.54.84,9.81,1.26,13.65-3.79,1.09-1.43,3.52-7.85,4.78-15.42C384.48,319.3,383.2,324.17,383.2,324.17Z" transform="translate(-255.56 -204.02)"/><path class="cls-2" d="M327.72,295.59a5.08,5.08,0,1,1,5.08,5.08A5.08,5.08,0,0,1,327.72,295.59Zm11.07,43.87s-12.38-27.67,10.55-43.11c0,0-17.43-27.67-38.83,4.74,0,0-20,32.41-28.89,38.06a26.84,26.84,0,0,1-22.93,4.74,94.53,94.53,0,0,0,19.94,26.76c.06-7.83,1.84-17.78,2.71-19.39,3-5.57,10.26-6.27,12.9-5.83,14.46,2.44,7.11,15.55,5.54,16.92-1.14,1-7.74,5.54-10.32-2.07a9.54,9.54,0,0,1-.07-5.32c-.4,1.5-.2,7.34,6.14,6.54,2.33-.29,8.18-7.14,1.52-12.11-1.39-1-6.08-1-8.41-.48-2.86.61-6.32,3.29-6.94,12.73-.2,2.89-1.16,7.79-.95,10.86,7.2,6.05,16.1,11,26.56,12.14,1.17.13,5.2-18,6.41-17.93,1,0-1.86,51.63,3.59,51.65,3.82,0-1.38-33.46,2.07-33.82a83.53,83.53,0,0,0,25.74-7.1c0-3.34-.83-8.49-1-11.27-.65-9.89-4.27-12.69-7.27-13.33-2.44-.52-7.35-.58-8.81.51-7,5.21-.85,12.37,1.59,12.68,6.65.84,6.86-5.28,6.43-6.85a9.88,9.88,0,0,1-.07,5.57c-2.7,8-9.61,3.21-10.81,2.17-1.65-1.43-9.34-15.17,5.8-17.72,2.77-.47,10.37.26,13.52,6.11.9,1.66,2.74,12.86,2.83,21.08A77.19,77.19,0,0,0,375.94,352S350.87,359.33,338.79,339.46Z" transform="translate(-255.56 -204.02)"/></svg>